<svg width="39" height="40" viewBox="0 0 39 40" fill="none" xmlns="http://www.w3.org/2000/svg">
<path d="M31.8762 19.5615H7.1238C3.18937 19.5615 0 22.8255 0 26.8471V32.7011C0 36.7227 3.18937 39.9858 7.1238 39.9858H31.8762C35.8098 39.9858 39 36.7227 39 32.7011V26.8471C39 22.8255 35.8098 19.5615 31.8762 19.5615ZM12.3241 24.1189H10.0229V35.8089H7.79968V24.1189H5.50009V22.1304H12.3241V24.1189ZM18.8245 35.8089H16.8525V34.7033C16.486 35.1123 16.1083 35.4244 15.7139 35.635C15.3195 35.8545 14.9386 35.9569 14.568 35.9569C14.11 35.9569 13.7697 35.8081 13.5367 35.5057C13.3077 35.2041 13.1908 34.757 13.1908 34.153V25.7171H15.1628V33.4587C15.1628 33.6977 15.2066 33.8693 15.2853 33.9758C15.3704 34.0855 15.5055 34.1359 15.6908 34.1359C15.8339 34.1359 16.0184 34.066 16.2403 33.9246C16.4637 33.7815 16.6673 33.6026 16.8525 33.3815V25.7163H18.8245V35.8089ZM25.9841 33.7254C25.9841 34.4383 25.829 34.9863 25.5197 35.3683C25.212 35.7504 24.7619 35.9382 24.1791 35.9382C23.7911 35.9382 23.446 35.8667 23.1462 35.7187C22.8448 35.5724 22.561 35.3472 22.3025 35.035V35.8081H20.3067V22.1304H22.3025V26.5357C22.5697 26.2309 22.852 25.9943 23.147 25.8358C23.4483 25.674 23.7513 25.596 24.0582 25.596C24.6824 25.596 25.1579 25.809 25.4871 26.239C25.8179 26.6691 25.9825 27.2991 25.9825 28.125V33.7254H25.9841ZM32.8248 31.0061H29.051V32.9076C29.051 33.4376 29.1146 33.8067 29.2434 34.0124C29.3754 34.2188 29.5973 34.3196 29.913 34.3196C30.2406 34.3196 30.4672 34.2327 30.5992 34.0587C30.7264 33.8831 30.7948 33.501 30.7948 32.9076V32.4483H32.8248V32.9661C32.8248 34.0002 32.5791 34.7798 32.0806 35.3057C31.5899 35.8268 30.8504 36.0853 29.8676 36.0853C28.9826 36.0853 28.2853 35.8098 27.7788 35.2553C27.2738 34.7042 27.0162 33.9392 27.0162 32.9669V28.434C27.0162 27.5617 27.2977 26.8438 27.8567 26.2935C28.4141 25.7431 29.1321 25.4683 30.0155 25.4683C30.9196 25.4683 31.6138 25.7228 32.098 26.2333C32.5823 26.7447 32.8248 27.4763 32.8248 28.4331V31.0061Z" />
<path d="M29.9321 27.2314C29.6172 27.2314 29.3929 27.3217 29.2562 27.5103C29.1162 27.6875 29.051 27.9907 29.051 28.4143V29.4345H30.7948V28.4143C30.7948 27.9907 30.7248 27.6867 30.5865 27.5103C30.4537 27.3225 30.2318 27.2314 29.9321 27.2314Z" />
<path d="M23.128 27.1982C22.9881 27.1982 22.8466 27.2299 22.7106 27.2958C22.5722 27.36 22.4371 27.4665 22.3035 27.6047V33.8912C22.4617 34.0538 22.6183 34.179 22.771 34.2505C22.9229 34.3196 23.0803 34.3586 23.2481 34.3586C23.4906 34.3586 23.6672 34.2871 23.7809 34.1424C23.893 33.9993 23.9502 33.7709 23.9502 33.4481V28.2364C23.9502 27.8933 23.8834 27.6364 23.7435 27.46C23.5988 27.286 23.3936 27.1982 23.128 27.1982Z" />
<path d="M10.3651 16.0556H12.865V9.80413L15.7761 0.985352H13.2348L11.6874 7.00924H11.53L9.90547 0.985352H7.38721L10.3651 10.0854V16.0556Z" />
<path d="M19.1632 16.3361C20.1731 16.3361 20.965 16.0654 21.5423 15.524C22.1156 14.9801 22.4027 14.2379 22.4027 13.2868V7.54414C22.4027 6.69787 22.1093 6.00118 21.5248 5.46383C20.9364 4.9281 20.1826 4.6582 19.2634 4.6582C18.2536 4.6582 17.4497 4.91347 16.8517 5.42318C16.2553 5.93289 15.9556 6.61658 15.9556 7.48073V13.2429C15.9556 14.1883 16.2474 14.9362 16.8302 15.4971C17.4131 16.0556 18.1923 16.3361 19.1632 16.3361ZM18.2424 7.39619C18.2424 7.15474 18.3275 6.95964 18.4937 6.8068C18.6663 6.65722 18.8849 6.58487 19.1569 6.58487C19.4503 6.58487 19.688 6.65722 19.8693 6.8068C20.0498 6.95964 20.1397 7.15474 20.1397 7.39619V13.4534C20.1397 13.7501 20.0514 13.9859 19.8725 14.1558C19.6952 14.3265 19.4566 14.4102 19.1569 14.4102C18.8635 14.4102 18.6368 14.3289 18.4778 14.1582C18.3212 13.9916 18.2416 13.7574 18.2416 13.4526L18.2424 7.39619Z" />
<path d="M25.7558 16.2182C26.1733 16.2182 26.6019 16.0962 27.0432 15.8621C27.4893 15.6247 27.9163 15.2776 28.3226 14.8248V16.0564H30.5434V4.93945H28.3226V13.3778C28.1158 13.6192 27.886 13.8176 27.6395 13.9753C27.3883 14.1314 27.1815 14.2094 27.0185 14.2094C26.8102 14.2094 26.6567 14.1509 26.5669 14.0298C26.4754 13.9135 26.4237 13.7233 26.4237 13.4623V4.93945H24.2061V14.2305C24.2061 14.8931 24.3365 15.3882 24.5941 15.7166C24.8565 16.0499 25.2398 16.2182 25.7558 16.2182Z" />
</svg>
